<?xml version="1.0" encoding="UTF-8"?>
<svg id="Capa_1" data-name="Capa 1" xmlns="http://www.w3.org/2000/svg" xmlns:xlink="http://www.w3.org/1999/xlink" viewBox="0 0 1899.33 161.35">
  <defs>
    <style>
      .cls-1 {
        fill: #10274f;
      }

      .cls-1, .cls-2, .cls-3 {
        stroke-width: 0px;
      }

      .cls-2 {
        fill: none;
      }

      .cls-4 {
        clip-path: url(#clippath);
      }

      .cls-3 {
        fill: #009cdd;
      }
    </style>
    <clipPath id="clippath">
      <rect class="cls-2" width="1899.33" height="161.29"/>
    </clipPath>
  </defs>
  <g class="cls-4">
    <g id="Grupo_535" data-name="Grupo 535">
      <path id="Trazado_200" data-name="Trazado 200" class="cls-3" d="M51.55,77.63c4.82,2.61,8.78,6.55,11.42,11.35,2.84,5.17,4.27,11,4.15,16.9.11,5.92-1.32,11.76-4.15,16.96-2.63,4.84-6.59,8.82-11.42,11.46-5.06,2.74-10.74,4.14-16.5,4.04-7.68.37-15.12-2.75-20.24-8.48v30.65H0v-86.21h14.09v8.29c2.41-2.97,5.52-5.3,9.06-6.75,3.77-1.54,7.82-2.31,11.89-2.26,5.76-.09,11.44,1.31,16.5,4.06M46.82,120.23c3.62-3.88,5.53-9.05,5.3-14.35.23-5.29-1.68-10.45-5.3-14.31-3.51-3.64-8.39-5.62-13.44-5.47-3.34-.05-6.63.78-9.54,2.42-2.85,1.64-5.19,4.04-6.75,6.93-1.71,3.2-2.56,6.78-2.49,10.41-.08,3.63.78,7.22,2.49,10.43,1.55,2.9,3.89,5.3,6.75,6.93,2.91,1.62,6.2,2.46,9.54,2.42,5.04.17,9.92-1.8,13.44-5.43"/>
      <path id="Trazado_201" data-name="Trazado 201" class="cls-3" d="M94.68,134.18c-5-2.65-9.16-6.65-12-11.54-2.93-5.09-4.43-10.89-4.33-16.77-.1-5.84,1.4-11.6,4.33-16.66,2.85-4.87,7-8.85,12-11.48,5.32-2.82,11.26-4.25,17.27-4.15,6.05-.1,12.04,1.33,17.39,4.15,5.01,2.63,9.18,6.6,12.05,11.48,2.92,5.06,4.41,10.82,4.31,16.66.1,5.87-1.39,11.67-4.31,16.77-2.85,4.9-7.02,8.89-12.03,11.54-5.36,2.82-11.34,4.25-17.39,4.15-6.02.1-11.97-1.33-17.3-4.15M125.41,120.23c3.63-3.87,5.54-9.05,5.3-14.35.24-5.29-1.68-10.45-5.3-14.31-3.52-3.61-8.39-5.6-13.44-5.47-5.05-.16-9.93,1.82-13.44,5.45-3.61,3.87-5.52,9.02-5.3,14.31-.23,5.3,1.68,10.47,5.3,14.35,3.51,3.62,8.39,5.59,13.44,5.43,5.06.16,9.96-1.81,13.5-5.43"/>
      <path id="Trazado_202" data-name="Trazado 202" class="cls-3" d="M259.1,74.28l-23.31,63.2h-14.2l-16.33-43.56-16.59,43.56h-14.18l-23.22-63.2h13.98l16.7,46.63,17.38-46.63h12.43l17.06,46.88,17.16-46.88h13.12Z"/>
      <path id="Trazado_203" data-name="Trazado 203" class="cls-3" d="M329.05,110.62h-49.61c.74,4.44,3.19,8.41,6.82,11.06,3.98,2.83,8.77,4.26,13.65,4.08,6.42.23,12.65-2.24,17.17-6.81l7.94,9.12c-2.89,3.42-6.59,6.07-10.77,7.69-10.77,3.96-22.68,3.4-33.03-1.55-5.11-2.59-9.36-6.6-12.25-11.54-2.93-5.1-4.42-10.89-4.31-16.77-.08-5.82,1.38-11.56,4.24-16.63,2.74-4.86,6.77-8.85,11.66-11.54,5.15-2.8,10.93-4.23,16.8-4.15,5.77-.09,11.46,1.32,16.52,4.1,4.81,2.67,8.76,6.66,11.38,11.5,2.77,5.24,4.16,11.11,4.04,17.04,0,1.06-.07,2.47-.23,4.38M285.31,89.6c-3.31,2.86-5.45,6.84-6,11.18h35.87c-.99-9.03-8.81-15.75-17.89-15.38-4.39-.12-8.66,1.39-12,4.24"/>
      <path id="Trazado_204" data-name="Trazado 204" class="cls-3" d="M382.45,73.56v14.09c-1.13-.23-2.29-.35-3.44-.36-5-.29-9.89,1.53-13.48,5.02-3.48,4-5.22,9.22-4.86,14.51v30.65h-14.84v-63.2h14.09v9.24c5.19-7.09,13.76-10.88,22.5-9.95"/>
      <path id="Trazado_205" data-name="Trazado 205" class="cls-3" d="M455.97,110.62h-49.61c.74,4.44,3.19,8.41,6.82,11.06,3.98,2.83,8.77,4.26,13.65,4.08,6.42.23,12.65-2.24,17.17-6.81l7.94,9.12c-2.89,3.42-6.59,6.07-10.77,7.69-10.77,3.96-22.68,3.4-33.03-1.55-5.11-2.59-9.36-6.6-12.25-11.54-2.93-5.1-4.42-10.89-4.31-16.77-.08-5.82,1.38-11.56,4.24-16.63,2.74-4.86,6.77-8.85,11.66-11.54,5.15-2.8,10.93-4.23,16.8-4.15,5.77-.09,11.46,1.32,16.52,4.1,4.79,2.67,8.71,6.64,11.33,11.46,2.8,5.25,4.21,11.13,4.09,17.08,0,1.06-.07,2.47-.23,4.38M412.23,89.6c-3.31,2.86-5.45,6.84-6,11.18h35.87c-.99-9.04-8.81-15.76-17.89-15.38-4.39-.12-8.66,1.39-12,4.24"/>
      <path id="Trazado_206" data-name="Trazado 206" class="cls-3" d="M534.67,49.65v87.87h-14.21v-8.17c-2.41,2.97-5.52,5.28-9.06,6.73-3.77,1.56-7.81,2.33-11.89,2.28-5.72.08-11.36-1.31-16.38-4.04-4.82-2.64-8.78-6.61-11.41-11.43-2.83-5.2-4.25-11.04-4.13-16.96-.13-5.9,1.3-11.73,4.13-16.9,2.65-4.8,6.6-8.75,11.41-11.38,5.03-2.73,10.67-4.12,16.38-4.04,3.94-.06,7.84.66,11.5,2.12,3.43,1.37,6.47,3.55,8.87,6.36v-32.43h14.79ZM510.86,123.23c2.87-1.63,5.22-4.03,6.77-6.94,1.7-3.2,2.55-6.78,2.47-10.41.07-3.62-.78-7.2-2.47-10.41-1.56-2.9-3.91-5.3-6.77-6.93-5.99-3.22-13.19-3.22-19.17,0-2.85,1.64-5.19,4.04-6.75,6.93-1.71,3.2-2.56,6.78-2.49,10.41-.08,3.63.78,7.21,2.49,10.41,1.55,2.9,3.89,5.31,6.75,6.94,5.99,3.22,13.19,3.22,19.17,0"/>
      <path id="Trazado_207" data-name="Trazado 207" class="cls-3" d="M643.01,77.62c4.82,2.61,8.78,6.55,11.42,11.35,2.83,5.18,4.26,11,4.13,16.9.12,5.92-1.31,11.76-4.13,16.96-2.63,4.82-6.6,8.78-11.41,11.41-5.07,2.75-10.76,4.14-16.52,4.04-4.07.05-8.1-.72-11.87-2.26-3.54-1.46-6.65-3.78-9.06-6.75v8.26h-14.09V49.67h14.84v32.29c2.47-2.72,5.52-4.86,8.92-6.25,3.59-1.45,7.43-2.17,11.3-2.12,5.76-.1,11.45,1.29,16.52,4.04M638.32,120.23c3.62-3.88,5.53-9.05,5.3-14.35.22-5.29-1.69-10.44-5.3-14.31-3.52-3.63-8.41-5.61-13.46-5.45-3.34-.05-6.63.79-9.54,2.42-2.85,1.64-5.19,4.04-6.75,6.93-1.7,3.2-2.55,6.78-2.47,10.41-.1,3.63.74,7.23,2.44,10.45,1.55,2.9,3.89,5.3,6.75,6.93,2.92,1.62,6.2,2.45,9.54,2.42,5.05.17,9.94-1.8,13.46-5.43"/>
      <path id="Trazado_208" data-name="Trazado 208" class="cls-3" d="M732.46,74.27l-29.61,68.32c-1.92,5.68-5.41,10.71-10.06,14.51-4.21,2.89-9.22,4.38-14.33,4.24-3.18,0-6.33-.53-9.34-1.55-2.8-.86-5.38-2.31-7.58-4.24l5.91-10.91c1.46,1.36,3.17,2.44,5.02,3.18,1.87.76,3.86,1.16,5.88,1.17,2.31.08,4.58-.62,6.43-2,2.06-1.86,3.66-4.17,4.67-6.75l1.06-2.49-27.55-63.45h15.42l19.87,46.75,19.98-46.78h14.21Z"/>
      <path id="Trazado_209" data-name="Trazado 209" class="cls-3" d="M807.87,113.17v25.17h-28.77V2.97h98.37v24.9h-69.6v30.3h61.54v26.23h-61.54v28.77Z"/>
      <path id="Trazado_210" data-name="Trazado 210" class="cls-3" d="M909.2,138.33L970.33,3.8h29.84l60.28,134.53h-28.78l-13.12-29.82h-68.3l-14.17,29.82h-26.88ZM985.57,28.97l-22.64,52.02h44.84l-22.2-52.02Z"/>
      <path id="Trazado_211" data-name="Trazado 211" class="cls-3" d="M1132.37,98.16c2.97,17.77,18.82,20.14,29.82,20.14,10.36,0,26.24-2.95,26.24-16.7,0-28.77-80.18-10.15-80.18-60.71,0-27.76,26.02-40.88,50.34-40.88,28.14,0,53.94,12.27,53.94,43.38l-28.77-4.24c-3.58-15.65-17.34-16.29-26.63-16.29s-20.33,4.03-20.33,15.23c0,9.95,6.36,12.27,40.2,20.33,9.95,2.53,39.97,8.67,39.97,39.34,0,24.74-19.23,43.14-56.04,43.14-30.26,0-57.33-14.84-57.33-48.01l28.77,5.28Z"/>
      <path id="Trazado_212" data-name="Trazado 212" class="cls-3" d="M1306.65,28.34h-42.94V3.58h115.08v24.98h-42.57v109.81h-29.57V28.34Z"/>
      <path id="Trazado_213" data-name="Trazado 213" class="cls-1" d="M1433.58,3.38h60.69c33.84,0,46.55,21.38,46.55,43.16s-12.9,43.14-46.55,43.14h-31.08v48.66h-29.61V3.38ZM1463.19,66.84h23.05c13.53,0,26.03-2.97,26.03-20.14s-12.48-20.33-26.03-20.33h-23.05v40.46Z"/>
      <path id="Trazado_214" data-name="Trazado 214" class="cls-1" d="M1674.07,88.42l37.86,49.86h-36.17l-34.04-48.38h-14.6v48.38h-29.82V3.38h60.71c34.04,0,46.94,21.35,46.94,43.14,1.17,19.96-12.54,37.74-32.14,41.68h1.27v.21ZM1627.11,26.43v40.61h23.01c14.17,0,25.81-3.18,25.81-20.31s-11.66-20.31-25.81-20.31h-23.01Z"/>
      <path id="Trazado_215" data-name="Trazado 215" class="cls-1" d="M1891.3,104.25c-18.55,33.81-60.99,46.17-94.79,27.63-33.81-18.55-46.17-60.99-27.63-94.79,12.27-22.37,35.77-36.26,61.29-36.23,25.22.1,48.45,13.67,60.94,35.58-11.84,5.91-12.9,6.55-26.01,13.32-7.16-12.49-20.54-20.11-34.93-19.9-22.49.51-40.3,19.16-39.79,41.65.5,21.77,18.02,39.29,39.79,39.79,14.82.64,28.7-7.25,35.74-20.31h-2.95c-5.93,0-19.89.2-27.29.2-1.77.14-3.55.07-5.3-.2v-24.98c19.08,0,45.68.22,68.95.22-.41,4.02-1.06,28.97-8.03,38.08"/>
    </g>
  </g>
</svg>